<?xml version="1.0" encoding="utf-8"?>
<!-- Svg Vector Icons : http://www.onlinewebfonts.com/icon -->
<!DOCTYPE svg PUBLIC "-//W3C//DTD SVG 1.1//EN" "http://www.w3.org/Graphics/SVG/1.1/DTD/svg11.dtd">
<svg version="1.1" xmlns="http://www.w3.org/2000/svg" xmlns:xlink="http://www.w3.org/1999/xlink" x="0px" y="0px" viewBox="0 0 1000 1000" enable-background="new 0 0 1000 1000" xml:space="preserve">
<metadata> Svg Vector Icons : http://www.onlinewebfonts.com/icon </metadata>
<g><path id="Dropbox_1_" d="M805,396L511.8,217.5l184.9-153L990,244.9L805,396z M694.7,733.5l281.5-164.8L806.9,425.5L531.3,592.2L694.7,733.5z M468.7,592.2L193.1,425.5L23.8,568.7l281.5,164.8L468.7,592.2z M206.9,709.9v53l281.3,172.6V607.9l-186.8,153L206.9,709.9z M793.1,709.9l-94.5,51l-186.8-153v327.7l281.3-172.6V709.9z M488.2,217.5l-184.9-153L10,244.9L195.1,396L488.2,217.5z"/></g>
</svg>